<svg xmlns="http://www.w3.org/2000/svg" viewBox="0 0 1100 780" width="1100" height="780" font-family="'Segoe UI', system-ui, sans-serif">
  <!-- Background -->
  <rect width="1100" height="780" fill="#0f1117"/>
  
  <!-- Title -->
  <text x="550" y="38" text-anchor="middle" font-size="18" font-weight="700" fill="#e2e8f0" letter-spacing="2">RETAIL SALES DATABASE — ENTITY RELATIONSHIP DIAGRAM</text>
  <line x1="80" y1="50" x2="1020" y2="50" stroke="#334155" stroke-width="1"/>

  <!-- =================== CUSTOMERS =================== -->
  <g id="customers">
    <rect x="30" y="70" width="200" height="195" rx="6" fill="#1e293b" stroke="#38bdf8" stroke-width="1.5"/>
    <rect x="30" y="70" width="200" height="34" rx="6" fill="#38bdf8"/>
    <rect x="30" y="98" width="200" height="6" fill="#38bdf8"/>
    <text x="130" y="93" text-anchor="middle" font-size="12" font-weight="700" fill="#0f172a">CUSTOMERS</text>
    <!-- PK -->
    <text x="46" y="123" font-size="10" fill="#fbbf24" font-weight="700">PK</text>
    <text x="70" y="123" font-size="10" fill="#e2e8f0">customer_id</text>
    <text x="195" y="123" text-anchor="end" font-size="9" fill="#94a3b8">INT</text>
    <line x1="30" y1="130" x2="230" y2="130" stroke="#1e3a5f" stroke-width="0.5"/>
    <text x="70" y="148" font-size="10" fill="#e2e8f0">first_name</text>
    <text x="195" y="148" text-anchor="end" font-size="9" fill="#94a3b8">VARCHAR(50)</text>
    <line x1="30" y1="155" x2="230" y2="155" stroke="#1e3a5f" stroke-width="0.5"/>
    <text x="70" y="173" font-size="10" fill="#e2e8f0">last_name</text>
    <text x="195" y="173" text-anchor="end" font-size="9" fill="#94a3b8">VARCHAR(50)</text>
    <line x1="30" y1="180" x2="230" y2="180" stroke="#1e3a5f" stroke-width="0.5"/>
    <text x="70" y="198" font-size="10" fill="#e2e8f0">email</text>
    <text x="195" y="198" text-anchor="end" font-size="9" fill="#94a3b8">VARCHAR(100)</text>
    <line x1="30" y1="205" x2="230" y2="205" stroke="#1e3a5f" stroke-width="0.5"/>
    <text x="70" y="223" font-size="10" fill="#e2e8f0">location</text>
    <text x="195" y="223" text-anchor="end" font-size="9" fill="#94a3b8">VARCHAR(100)</text>
    <line x1="30" y1="230" x2="230" y2="230" stroke="#1e3a5f" stroke-width="0.5"/>
    <text x="70" y="248" font-size="10" fill="#e2e8f0">join_date</text>
    <text x="195" y="248" text-anchor="end" font-size="9" fill="#94a3b8">DATE</text>
  </g>

  <!-- =================== ORDERS =================== -->
  <g id="orders">
    <rect x="310" y="70" width="200" height="160" rx="6" fill="#1e293b" stroke="#a78bfa" stroke-width="1.5"/>
    <rect x="310" y="70" width="200" height="34" rx="6" fill="#a78bfa"/>
    <rect x="310" y="98" width="200" height="6" fill="#a78bfa"/>
    <text x="410" y="93" text-anchor="middle" font-size="12" font-weight="700" fill="#0f172a">ORDERS</text>
    <text x="326" y="123" font-size="10" fill="#fbbf24" font-weight="700">PK</text>
    <text x="350" y="123" font-size="10" fill="#e2e8f0">order_id</text>
    <text x="475" y="123" text-anchor="end" font-size="9" fill="#94a3b8">INT</text>
    <line x1="310" y1="130" x2="510" y2="130" stroke="#1e3a5f" stroke-width="0.5"/>
    <text x="326" y="148" font-size="10" fill="#f87171" font-weight="700">FK</text>
    <text x="350" y="148" font-size="10" fill="#e2e8f0">customer_id</text>
    <text x="475" y="148" text-anchor="end" font-size="9" fill="#94a3b8">INT</text>
    <line x1="310" y1="155" x2="510" y2="155" stroke="#1e3a5f" stroke-width="0.5"/>
    <text x="350" y="173" font-size="10" fill="#e2e8f0">order_date</text>
    <text x="475" y="173" text-anchor="end" font-size="9" fill="#94a3b8">DATETIME</text>
    <line x1="310" y1="180" x2="510" y2="180" stroke="#1e3a5f" stroke-width="0.5"/>
    <text x="350" y="198" font-size="10" fill="#e2e8f0">order_status</text>
    <text x="475" y="198" text-anchor="end" font-size="9" fill="#94a3b8">VARCHAR(30)</text>
  </g>

  <!-- =================== ORDER_ITEMS =================== -->
  <g id="order_items">
    <rect x="310" y="310" width="200" height="185" rx="6" fill="#1e293b" stroke="#a78bfa" stroke-width="1.5"/>
    <rect x="310" y="310" width="200" height="34" rx="6" fill="#a78bfa"/>
    <rect x="310" y="338" width="200" height="6" fill="#a78bfa"/>
    <text x="410" y="333" text-anchor="middle" font-size="12" font-weight="700" fill="#0f172a">ORDER_ITEMS</text>
    <text x="326" y="363" font-size="10" fill="#fbbf24" font-weight="700">PK</text>
    <text x="350" y="363" font-size="10" fill="#e2e8f0">order_item_id</text>
    <text x="475" y="363" text-anchor="end" font-size="9" fill="#94a3b8">INT</text>
    <line x1="310" y1="370" x2="510" y2="370" stroke="#1e3a5f" stroke-width="0.5"/>
    <text x="326" y="388" font-size="10" fill="#f87171" font-weight="700">FK</text>
    <text x="350" y="388" font-size="10" fill="#e2e8f0">order_id</text>
    <text x="475" y="388" text-anchor="end" font-size="9" fill="#94a3b8">INT</text>
    <line x1="310" y1="395" x2="510" y2="395" stroke="#1e3a5f" stroke-width="0.5"/>
    <text x="326" y="413" font-size="10" fill="#f87171" font-weight="700">FK</text>
    <text x="350" y="413" font-size="10" fill="#e2e8f0">product_id</text>
    <text x="475" y="413" text-anchor="end" font-size="9" fill="#94a3b8">INT</text>
    <line x1="310" y1="420" x2="510" y2="420" stroke="#1e3a5f" stroke-width="0.5"/>
    <text x="350" y="438" font-size="10" fill="#e2e8f0">quantity</text>
    <text x="475" y="438" text-anchor="end" font-size="9" fill="#94a3b8">INT</text>
    <line x1="310" y1="445" x2="510" y2="445" stroke="#1e3a5f" stroke-width="0.5"/>
    <text x="350" y="463" font-size="10" fill="#e2e8f0">unit_price</text>
    <text x="475" y="463" text-anchor="end" font-size="9" fill="#94a3b8">DECIMAL(10,2)</text>
  </g>

  <!-- =================== PRODUCTS =================== -->
  <g id="products">
    <rect x="590" y="310" width="200" height="160" rx="6" fill="#1e293b" stroke="#34d399" stroke-width="1.5"/>
    <rect x="590" y="310" width="200" height="34" rx="6" fill="#34d399"/>
    <rect x="590" y="338" width="200" height="6" fill="#34d399"/>
    <text x="690" y="333" text-anchor="middle" font-size="12" font-weight="700" fill="#0f172a">PRODUCTS</text>
    <text x="606" y="363" font-size="10" fill="#fbbf24" font-weight="700">PK</text>
    <text x="630" y="363" font-size="10" fill="#e2e8f0">product_id</text>
    <text x="755" y="363" text-anchor="end" font-size="9" fill="#94a3b8">INT</text>
    <line x1="590" y1="370" x2="790" y2="370" stroke="#1e3a5f" stroke-width="0.5"/>
    <text x="630" y="388" font-size="10" fill="#e2e8f0">product_name</text>
    <text x="755" y="388" text-anchor="end" font-size="9" fill="#94a3b8">VARCHAR(100)</text>
    <line x1="590" y1="395" x2="790" y2="395" stroke="#1e3a5f" stroke-width="0.5"/>
    <text x="630" y="413" font-size="10" fill="#e2e8f0">category</text>
    <text x="755" y="413" text-anchor="end" font-size="9" fill="#94a3b8">VARCHAR(50)</text>
    <line x1="590" y1="420" x2="790" y2="420" stroke="#1e3a5f" stroke-width="0.5"/>
    <text x="630" y="438" font-size="10" fill="#e2e8f0">price</text>
    <text x="755" y="438" text-anchor="end" font-size="9" fill="#94a3b8">DECIMAL(10,2)</text>
  </g>

  <!-- =================== PAYMENTS =================== -->
  <g id="payments">
    <rect x="590" y="70" width="200" height="185" rx="6" fill="#1e293b" stroke="#fb923c" stroke-width="1.5"/>
    <rect x="590" y="70" width="200" height="34" rx="6" fill="#fb923c"/>
    <rect x="590" y="98" width="200" height="6" fill="#fb923c"/>
    <text x="690" y="93" text-anchor="middle" font-size="12" font-weight="700" fill="#0f172a">PAYMENTS</text>
    <text x="606" y="123" font-size="10" fill="#fbbf24" font-weight="700">PK</text>
    <text x="630" y="123" font-size="10" fill="#e2e8f0">payment_id</text>
    <text x="755" y="123" text-anchor="end" font-size="9" fill="#94a3b8">INT</text>
    <line x1="590" y1="130" x2="790" y2="130" stroke="#1e3a5f" stroke-width="0.5"/>
    <text x="606" y="148" font-size="10" fill="#f87171" font-weight="700">FK</text>
    <text x="630" y="148" font-size="10" fill="#e2e8f0">order_id</text>
    <text x="755" y="148" text-anchor="end" font-size="9" fill="#94a3b8">INT</text>
    <line x1="590" y1="155" x2="790" y2="155" stroke="#1e3a5f" stroke-width="0.5"/>
    <text x="630" y="173" font-size="10" fill="#e2e8f0">payment_date</text>
    <text x="755" y="173" text-anchor="end" font-size="9" fill="#94a3b8">DATETIME</text>
    <line x1="590" y1="180" x2="790" y2="180" stroke="#1e3a5f" stroke-width="0.5"/>
    <text x="630" y="198" font-size="10" fill="#e2e8f0">payment_method</text>
    <text x="755" y="198" text-anchor="end" font-size="9" fill="#94a3b8">VARCHAR(50)</text>
    <line x1="590" y1="205" x2="790" y2="205" stroke="#1e3a5f" stroke-width="0.5"/>
    <text x="630" y="223" font-size="10" fill="#e2e8f0">amount</text>
    <text x="755" y="223" text-anchor="end" font-size="9" fill="#94a3b8">DECIMAL(10,2)</text>
    <line x1="590" y1="230" x2="790" y2="230" stroke="#1e3a5f" stroke-width="0.5"/>
    <text x="630" y="248" font-size="10" fill="#e2e8f0">payment_status</text>
    <text x="755" y="248" text-anchor="end" font-size="9" fill="#94a3b8">VARCHAR(30)</text>
  </g>

  <!-- =================== SUPPLIERS =================== -->
  <g id="suppliers">
    <rect x="870" y="310" width="200" height="185" rx="6" fill="#1e293b" stroke="#f472b6" stroke-width="1.5"/>
    <rect x="870" y="310" width="200" height="34" rx="6" fill="#f472b6"/>
    <rect x="870" y="338" width="200" height="6" fill="#f472b6"/>
    <text x="970" y="333" text-anchor="middle" font-size="12" font-weight="700" fill="#0f172a">SUPPLIERS</text>
    <text x="886" y="363" font-size="10" fill="#fbbf24" font-weight="700">PK</text>
    <text x="910" y="363" font-size="10" fill="#e2e8f0">supplier_id</text>
    <text x="1035" y="363" text-anchor="end" font-size="9" fill="#94a3b8">INT</text>
    <line x1="870" y1="370" x2="1070" y2="370" stroke="#1e3a5f" stroke-width="0.5"/>
    <text x="910" y="388" font-size="10" fill="#e2e8f0">supplier_name</text>
    <text x="1035" y="388" text-anchor="end" font-size="9" fill="#94a3b8">VARCHAR(100)</text>
    <line x1="870" y1="395" x2="1070" y2="395" stroke="#1e3a5f" stroke-width="0.5"/>
    <text x="910" y="413" font-size="10" fill="#e2e8f0">contact_name</text>
    <text x="1035" y="413" text-anchor="end" font-size="9" fill="#94a3b8">VARCHAR(100)</text>
    <line x1="870" y1="420" x2="1070" y2="420" stroke="#1e3a5f" stroke-width="0.5"/>
    <text x="910" y="438" font-size="10" fill="#e2e8f0">contact_email</text>
    <text x="1035" y="438" text-anchor="end" font-size="9" fill="#94a3b8">VARCHAR(100)</text>
    <line x1="870" y1="445" x2="1070" y2="445" stroke="#1e3a5f" stroke-width="0.5"/>
    <text x="910" y="463" font-size="10" fill="#e2e8f0">phone / location</text>
    <text x="1035" y="463" text-anchor="end" font-size="9" fill="#94a3b8">VARCHAR</text>
  </g>

  <!-- =================== INVENTORY =================== -->
  <g id="inventory">
    <rect x="870" y="70" width="200" height="185" rx="6" fill="#1e293b" stroke="#34d399" stroke-width="1.5"/>
    <rect x="870" y="70" width="200" height="34" rx="6" fill="#34d399"/>
    <rect x="870" y="98" width="200" height="6" fill="#34d399"/>
    <text x="970" y="93" text-anchor="middle" font-size="12" font-weight="700" fill="#0f172a">INVENTORY</text>
    <text x="886" y="123" font-size="10" fill="#fbbf24" font-weight="700">PK/FK</text>
    <text x="930" y="123" font-size="10" fill="#e2e8f0">product_id</text>
    <text x="1035" y="123" text-anchor="end" font-size="9" fill="#94a3b8">INT</text>
    <line x1="870" y1="130" x2="1070" y2="130" stroke="#1e3a5f" stroke-width="0.5"/>
    <text x="930" y="148" font-size="10" fill="#e2e8f0">stock_quantity</text>
    <text x="1035" y="148" text-anchor="end" font-size="9" fill="#94a3b8">INT</text>
    <line x1="870" y1="155" x2="1070" y2="155" stroke="#1e3a5f" stroke-width="0.5"/>
    <text x="930" y="173" font-size="10" fill="#e2e8f0">reorder_level</text>
    <text x="1035" y="173" text-anchor="end" font-size="9" fill="#94a3b8">INT</text>
    <line x1="870" y1="180" x2="1070" y2="180" stroke="#1e3a5f" stroke-width="0.5"/>
    <text x="886" y="198" font-size="10" fill="#f87171" font-weight="700">FK</text>
    <text x="910" y="198" font-size="10" fill="#e2e8f0">supplier_id</text>
    <text x="1035" y="198" text-anchor="end" font-size="9" fill="#94a3b8">INT</text>
  </g>

  <!-- =================== INVENTORY_LOG =================== -->
  <g id="inventory_log">
    <rect x="590" y="540" width="200" height="185" rx="6" fill="#1e293b" stroke="#fbbf24" stroke-width="1.5"/>
    <rect x="590" y="540" width="200" height="34" rx="6" fill="#fbbf24"/>
    <rect x="590" y="568" width="200" height="6" fill="#fbbf24"/>
    <text x="690" y="563" text-anchor="middle" font-size="12" font-weight="700" fill="#0f172a">INVENTORY_LOG</text>
    <text x="606" y="593" font-size="10" fill="#fbbf24" font-weight="700" fill="#1e293b">PK</text>
    <text x="630" y="593" font-size="10" fill="#e2e8f0">log_id</text>
    <text x="755" y="593" text-anchor="end" font-size="9" fill="#94a3b8">INT</text>
    <line x1="590" y1="600" x2="790" y2="600" stroke="#1e3a5f" stroke-width="0.5"/>
    <text x="606" y="618" font-size="10" fill="#f87171" font-weight="700">FK</text>
    <text x="630" y="618" font-size="10" fill="#e2e8f0">product_id</text>
    <text x="755" y="618" text-anchor="end" font-size="9" fill="#94a3b8">INT</text>
    <line x1="590" y1="625" x2="790" y2="625" stroke="#1e3a5f" stroke-width="0.5"/>
    <text x="630" y="643" font-size="10" fill="#e2e8f0">change_quantity</text>
    <text x="755" y="643" text-anchor="end" font-size="9" fill="#94a3b8">INT</text>
    <line x1="590" y1="650" x2="790" y2="650" stroke="#1e3a5f" stroke-width="0.5"/>
    <text x="630" y="668" font-size="10" fill="#e2e8f0">log_date</text>
    <text x="755" y="668" text-anchor="end" font-size="9" fill="#94a3b8">DATETIME</text>
    <line x1="590" y1="675" x2="790" y2="675" stroke="#1e3a5f" stroke-width="0.5"/>
    <text x="630" y="693" font-size="10" fill="#e2e8f0">reason</text>
    <text x="755" y="693" text-anchor="end" font-size="9" fill="#94a3b8">VARCHAR(100)</text>
  </g>

  <!-- =================== RELATIONSHIP LINES =================== -->
  <!-- customers → orders (1:M) -->
  <line x1="230" y1="163" x2="310" y2="163" stroke="#64748b" stroke-width="1.5" stroke-dasharray="5,3"/>
  <text x="268" y="157" text-anchor="middle" font-size="9" fill="#94a3b8">1</text>
  <text x="303" y="157" text-anchor="end" font-size="9" fill="#94a3b8">M</text>

  <!-- orders → order_items (1:M) -->
  <line x1="410" y1="230" x2="410" y2="310" stroke="#64748b" stroke-width="1.5" stroke-dasharray="5,3"/>
  <text x="418" y="268" font-size="9" fill="#94a3b8">1</text>
  <text x="418" y="305" font-size="9" fill="#94a3b8">M</text>

  <!-- orders → payments (1:1) -->
  <line x1="510" y1="140" x2="590" y2="140" stroke="#64748b" stroke-width="1.5" stroke-dasharray="5,3"/>
  <text x="548" y="134" text-anchor="middle" font-size="9" fill="#94a3b8">1</text>
  <text x="583" y="134" text-anchor="end" font-size="9" fill="#94a3b8">1</text>

  <!-- order_items → products (M:1) -->
  <line x1="510" y1="400" x2="590" y2="400" stroke="#64748b" stroke-width="1.5" stroke-dasharray="5,3"/>
  <text x="518" y="394" font-size="9" fill="#94a3b8">M</text>
  <text x="583" y="394" text-anchor="end" font-size="9" fill="#94a3b8">1</text>

  <!-- products → inventory (1:1) -->
  <line x1="790" y1="380" x2="870" y2="163" stroke="#64748b" stroke-width="1.5" stroke-dasharray="5,3"/>
  <text x="824" y="270" font-size="9" fill="#94a3b8">1:1</text>

  <!-- suppliers → inventory (1:M) -->
  <line x1="970" y1="310" x2="970" y2="255" stroke="#64748b" stroke-width="1.5" stroke-dasharray="5,3"/>
  <text x="978" y="285" font-size="9" fill="#94a3b8">1:M</text>

  <!-- products → inventory_log (1:M) -->
  <line x1="690" y1="470" x2="690" y2="540" stroke="#64748b" stroke-width="1.5" stroke-dasharray="5,3"/>
  <text x="698" y="510" font-size="9" fill="#94a3b8">1:M</text>

  <!-- Legend -->
  <rect x="30" y="710" width="500" height="50" rx="4" fill="#1e293b" stroke="#334155" stroke-width="1"/>
  <text x="46" y="730" font-size="10" font-weight="700" fill="#94a3b8">LEGEND:</text>
  <rect x="100" y="719" width="12" height="12" rx="2" fill="#fbbf24"/>
  <text x="118" y="730" font-size="10" fill="#e2e8f0">PK — Primary Key</text>
  <rect x="240" y="719" width="12" height="12" rx="2" fill="#f87171"/>
  <text x="258" y="730" font-size="10" fill="#e2e8f0">FK — Foreign Key</text>
  <line x1="100" y1="748" x2="130" y2="748" stroke="#64748b" stroke-width="1.5" stroke-dasharray="5,3"/>
  <text x="138" y="752" font-size="10" fill="#e2e8f0">Relationship line (cardinality shown at ends)</text>

  <!-- Build info -->
  <text x="1070" y="760" text-anchor="end" font-size="9" fill="#475569">Built with SQL Server · 3NF Normalised · github.com/SundayOni</text>
</svg>
